<?xml version="1.0" encoding="UTF-8"?>
<svg version="1.1" xmlns="http://www.w3.org/2000/svg" width="512" height="512">
<path d="M0 0 C2.91569507 1.07026391 5.69347159 2.38326836 8.4921875 3.7265625 C9.30227264 4.10594971 10.11235779 4.48533691 10.94699097 4.8762207 C13.59360945 6.11760264 16.23413125 7.3714396 18.875 8.625 C21.66593005 9.93679504 24.45843777 11.24519211 27.25097656 12.55355835 C29.13429762 13.43628355 31.01710871 14.32009758 32.89941406 15.20498657 C41.15123852 19.08269037 49.44203238 22.86946294 57.75 26.625 C60.42227443 27.83505719 63.09406368 29.04618179 65.765625 30.2578125 C66.43030792 30.5592215 67.09499084 30.86063049 67.77981567 31.1711731 C76.81054252 35.27035995 85.81659858 39.42340225 94.82540894 43.57046509 C103.33976924 47.48940322 111.85869242 51.39755937 120.39453125 55.26953125 C121.15108002 55.61277435 121.90762878 55.95601746 122.68710327 56.30966187 C126.27204825 57.93550277 129.85798741 59.55910521 133.4453125 61.1796875 C136.96955499 62.77346228 140.48680084 64.38200051 144 66 C144.86286621 66.39493652 145.72573242 66.78987305 146.61474609 67.19677734 C150.07004465 68.83651441 151.8333051 69.74995766 154 73 C154.61711482 76.91711681 154.64720951 80.85272999 154.75 84.8125 C154.82476562 85.89337891 154.89953125 86.97425781 154.9765625 88.08789062 C155.04854942 91.34529876 154.97773873 93.88670375 154 97 C150.21933526 100.58959341 145.8892252 102.37025827 141 104 C140.67 96.08 140.34 88.16 140 80 C116.13824107 68.91831488 92.25614143 57.88467816 68.31787109 46.96923828 C61.58451206 43.89879283 54.85315937 40.82395705 48.12225342 37.74813843 C46.06430472 36.8079327 44.00605281 35.8683938 41.94775391 34.92895508 C28.94765572 28.98990078 15.9773743 22.98955737 3 17 C2.67 122.27 2.34 227.54 2 336 C21.305 327.09 21.305 327.09 41 318 C57.75 310.375 57.75 310.375 65.8203125 306.71484375 C73.69230152 303.14458465 81.55260606 299.54898727 89.41183472 295.95074463 C106.24851573 288.24247415 123.11612159 280.60428021 140 273 C140.33 265.08 140.66 257.16 141 249 C142.65 249.66 144.3 250.32 146 251 C146.72993164 251.28544678 147.45986328 251.57089355 148.21191406 251.86499023 C150.58195975 253.02606469 152.20309826 254.0522982 154 256 C155.10156994 260.04697266 154.9380963 263.89715683 154.75 268.0625 C154.74742187 269.15111328 154.74484375 270.23972656 154.7421875 271.36132812 C154.56797258 279.22519609 154.56797258 279.22519609 152.46606445 282.0925293 C149.15946608 284.65014271 145.67138173 286.27482699 141.87109375 287.984375 C140.65766548 288.54305519 140.65766548 288.54305519 139.41972351 289.11302185 C136.76277513 290.33382371 134.10025721 291.54192738 131.4375 292.75 C129.57564827 293.60248384 127.71416145 294.45576505 125.85302734 295.30981445 C121.13026349 297.47468187 116.40296742 299.62944913 111.67437744 301.78155518 C107.69017754 303.59675436 103.71022442 305.42117667 99.73046875 307.24609375 C93.32900221 310.17996726 86.9239499 313.10588988 80.51679993 316.02732849 C75.1529382 318.4732961 69.79089219 320.92321431 64.4296875 323.375 C63.63684357 323.73757401 62.84399963 324.10014801 62.02713013 324.47370911 C59.68473956 325.54494244 57.34236859 326.61621861 55 327.6875 C52.16675275 328.98326128 49.33341366 330.2788214 46.5 331.57421875 C44.72109375 332.38765747 44.72109375 332.38765747 42.90625 333.2175293 C37.93994411 335.48371675 32.96961712 337.74108313 28 340 C130.96 340 233.92 340 340 340 C312.34338323 327.18351906 284.67511799 314.40019499 256.9274292 301.78346252 C253.7720119 300.34818842 250.61748796 298.91095729 247.46307373 297.47348022 C245.27395606 296.47686008 243.08354734 295.48312119 240.89306641 294.48950195 C234.23858698 291.46303327 227.61335252 288.38172062 221.05078125 285.16015625 C219.90907471 284.60078369 218.76736816 284.04141113 217.59106445 283.46508789 C215 282 215 282 214 280 C213.5710107 276.0925203 213.48997061 272.17739596 213.375 268.25 C213.30410156 267.16460937 213.23320312 266.07921875 213.16015625 264.9609375 C212.97776692 257.10859686 212.97776692 257.10859686 215.90722656 253.93164062 C219.57426909 251.41477749 222.66700864 250.08324784 227 249 C227.33 256.92 227.66 264.84 228 273 C231.18076172 274.4540625 231.18076172 274.4540625 234.42578125 275.9375 C245.4601237 280.98177083 256.49446615 286.02604167 267.52880859 291.0703125 C268.61398521 291.56639259 268.61398521 291.56639259 269.72108459 292.07249451 C271.16349924 292.73188493 272.60591258 293.39127824 274.04832458 294.05067444 C277.65287223 295.69848297 281.25744351 297.34623976 284.86206055 298.99389648 C291.44503756 302.00300965 298.02785613 305.01246666 304.60980225 308.02383423 C307.57286515 309.37945371 310.53606302 310.73477808 313.49926758 312.09008789 C314.85170942 312.70875975 316.20409232 313.32756046 317.55639648 313.9465332 C333.68927806 321.33072728 349.84774947 328.65806794 366 336 C366 230.73 366 125.46 366 17 C340.80239889 28.44673659 340.80239889 28.44673659 315.625 39.9375 C314.18035755 40.59834884 312.73569538 41.25915458 311.29101562 41.91992188 C308.32967882 43.2744156 305.36842147 44.62908281 302.40722656 45.98388672 C295.83079086 48.99255054 289.25329188 51.99888839 282.6758728 55.00540161 C279.07944505 56.64934019 275.48308515 58.2934272 271.88671875 59.9375 C270.43408236 60.60156323 268.98144564 61.26562572 267.52880859 61.9296875 C266.79353943 62.26581055 266.05827026 62.60193359 265.30072021 62.94824219 C252.86714681 68.63216146 240.4335734 74.31608073 228 80 C227.67 87.92 227.34 95.84 227 104 C215.125 98.125 215.125 98.125 214 97 C213.71893552 93.06978175 213.76816285 89.12656889 213.75 85.1875 C213.7190625 83.52750977 213.7190625 83.52750977 213.6875 81.83398438 C213.67976563 80.23586914 213.67976563 80.23586914 213.671875 78.60546875 C213.6625293 77.62731201 213.65318359 76.64915527 213.64355469 75.64135742 C214.07432283 72.44924748 214.71068654 71.25759226 217 69 C219.78271484 67.4387207 219.78271484 67.4387207 223.2109375 65.92578125 C223.83799591 65.64498215 224.46505432 65.36418304 225.1111145 65.07487488 C227.19480747 64.1441443 229.28486447 63.22865917 231.375 62.3125 C232.85539262 61.653634 234.33519959 60.99345072 235.81445312 60.33203125 C238.14366617 59.290702 240.47320414 58.25018089 242.80450439 57.21353149 C250.6279412 53.73338368 258.40614853 50.1575891 266.1807251 46.56991577 C270.07725813 44.77238753 273.97596867 42.97960151 277.875 41.1875 C279.02526169 40.65880562 279.02526169 40.65880562 280.19876099 40.11943054 C288.62148368 36.25097846 297.06099248 32.41964874 305.50234985 28.59207153 C313.60950979 24.91557883 321.70767935 21.22046999 329.79296875 17.49609375 C330.61914703 17.11566925 331.44532532 16.73524475 332.29653931 16.34329224 C336.29656152 14.50100469 340.29555257 12.65652889 344.29296875 10.80859375 C347.84965226 9.16594876 351.4132734 7.53922814 354.98138428 5.92156982 C356.98668966 5.00607664 358.982672 4.07207254 360.97900391 3.13720703 C362.22126536 2.57103014 363.46392089 2.00571684 364.70703125 1.44140625 C365.78057861 0.94455322 366.85412598 0.4477002 367.96020508 -0.06420898 C371.53349394 -1.16423438 373.46562433 -1.22074155 377 0 C379.75786623 3.66348491 380.37421579 6.32634206 380.36914349 10.86267567 C380.37511663 12.04305182 380.38108978 13.22342798 380.38724393 14.43957311 C380.3785054 15.73236753 380.36976688 17.02516195 380.36076355 18.35713196 C380.3620719 19.74738195 380.36469887 21.13763123 380.36853105 22.52787656 C380.37524221 26.34760334 380.36323479 30.16707799 380.34819686 33.98677266 C380.33524981 38.10601425 380.33962502 42.22524146 380.34190369 46.34449768 C380.34347726 53.48119288 380.33405924 60.61780585 380.31719017 67.75448036 C380.29281618 78.07291928 380.28499654 88.3913184 380.2812262 98.70978298 C380.2746592 115.45050612 380.2546913 132.19118543 380.22631836 148.93188477 C380.19878422 165.19457785 380.17754748 181.45725902 380.16479492 197.7199707 C380.16400675 198.7222876 380.16321858 199.7246045 380.16240653 200.75729463 C380.15849143 205.78558933 380.1547003 210.81388411 380.15097082 215.84217894 C380.11986718 257.56148312 380.06702461 299.28073905 380 341 C380.61488281 340.91548584 381.22976563 340.83097168 381.86328125 340.74389648 C382.67152344 340.64149658 383.47976563 340.53909668 384.3125 340.43359375 C385.11300781 340.32845459 385.91351563 340.22331543 386.73828125 340.11499023 C389 340 389 340 392 341.0625 C394 343 394 343 395.125 345.875 C395 349 395 349 392.93191433 351.65598714 C389.31197573 354.55006305 387.55571589 354.62621675 382.96437073 354.6292057 C381.91454893 354.64010651 381.91454893 354.64010651 380.84351861 354.65122753 C378.49222058 354.66951306 376.14254658 354.65210767 373.79125977 354.63491821 C372.0910817 354.64067805 370.39090986 354.64861824 368.69075108 354.65855443 C364.01408363 354.67947006 359.33792488 354.66909125 354.66125536 354.65362334 C349.61958359 354.64233301 344.57800068 354.65976101 339.53634644 354.67352295 C329.65790803 354.69578468 319.77965932 354.69094109 309.90121341 354.67645974 C301.87456626 354.66517905 293.84797237 354.66363154 285.82131958 354.66907883 C284.67999181 354.66984499 283.53866405 354.67061116 282.36275059 354.67140054 C280.0443429 354.67299913 277.72593522 354.67462019 275.40752757 354.6762635 C253.65526943 354.6905296 231.90311656 354.67411475 210.15087569 354.64726166 C191.47650762 354.62492213 172.80229495 354.62880202 154.12792969 354.65185547 C132.45481653 354.67859824 110.78179568 354.68915622 89.10866833 354.67379415 C86.79867237 354.67220136 84.4886764 354.67062951 82.17868042 354.66907883 C81.04204549 354.66830745 79.90541056 354.66753607 78.73433214 354.66674132 C70.715047 354.66241975 62.69582029 354.66972071 54.67654419 354.68147659 C44.90695043 354.69548321 35.13755759 354.69174035 25.36798692 354.66507287 C20.38101403 354.65190996 15.39437644 354.64682442 10.40740585 354.66331863 C5.84519908 354.67818002 1.28363946 354.67009331 -3.27850831 354.64343087 C-4.93186238 354.63782967 -6.58527074 354.64072296 -8.23859012 354.65280981 C-10.48130117 354.66795218 -12.72177759 354.65249163 -14.96437073 354.6292057 C-16.21131997 354.62839394 -17.45826921 354.62758218 -18.7430048 354.62674582 C-22.9101252 353.82486398 -24.42332162 352.30915916 -27 349 C-27.125 345.875 -27.125 345.875 -26 343 C-24 341.0625 -24 341.0625 -21 340 C-18.73828125 340.11499023 -18.73828125 340.11499023 -16.3125 340.43359375 C-15.50425781 340.53599365 -14.69601563 340.63839355 -13.86328125 340.74389648 C-13.24839844 340.82841064 -12.63351563 340.9129248 -12 341 C-12.00113916 340.2909328 -12.00227832 339.58186559 -12.003452 338.8513115 C-12.07055183 296.84824781 -12.12204227 254.84519032 -12.15319599 212.84208383 C-12.15694821 207.80137936 -12.16083117 202.76067501 -12.16479492 197.7199707 C-12.16558185 196.71643569 -12.16636878 195.71290068 -12.16717956 194.67895552 C-12.18024189 178.41900245 -12.20390028 162.15908112 -12.23145839 145.89914689 C-12.2594896 129.22127171 -12.27617142 112.54341318 -12.28226548 95.86551541 C-12.28638667 85.57014257 -12.29941413 75.27485944 -12.3237494 64.9795142 C-12.3395784 57.92448513 -12.3444068 50.86950259 -12.34050413 43.81445704 C-12.33857816 39.74096503 -12.34157942 35.66763006 -12.35761642 31.5941658 C-12.37218539 27.86645193 -12.37297208 24.13900112 -12.36269668 20.41127529 C-12.36082337 18.42069196 -12.37378906 16.43011185 -12.38724393 14.43957311 C-12.38127078 13.25919695 -12.37529764 12.0788208 -12.36914349 10.86267567 C-12.37028265 9.84388602 -12.37142181 8.82509637 -12.37259549 7.77543432 C-11.93605531 4.52368106 -10.92308127 2.63635084 -9 0 C-5.81574489 -1.59212755 -3.44435008 -0.70144346 0 0 Z " fill="#2C4355" transform="translate(72,97)"/>
<path d="M0 0 C3.81466627 1.68932505 7.2814103 3.85019465 10.8125 6.0625 C12.94357457 7.35313442 15.07645849 8.64078499 17.2109375 9.92578125 C18.31920898 10.59689941 19.42748047 11.26801758 20.56933594 11.95947266 C26.28433102 15.35869902 32.1106198 18.5477593 37.9375 21.75 C54.35266434 30.83654853 54.35266434 30.83654853 61.0625 34.6875 C61.7527124 35.07325195 62.4429248 35.45900391 63.15405273 35.85644531 C66.63383266 37.87792422 68.65272477 39.19025837 70 43 C70.19006053 45.58429339 70.27335377 48.05935353 70.25878906 50.64257812 C70.26404602 51.78961464 70.26404602 51.78961464 70.26940918 52.95982361 C70.27820078 55.48372516 70.27238648 58.00734567 70.265625 60.53125 C70.26697239 62.28715061 70.26891354 64.04305086 70.27142334 65.7989502 C70.27437112 69.47749384 70.27008809 73.15594031 70.26074219 76.83447266 C70.24934785 81.54898057 70.25590917 86.26326076 70.26788712 90.97776031 C70.27511506 94.60314651 70.27281349 98.22847875 70.26763153 101.85386658 C70.26629762 103.59219896 70.2679337 105.33053625 70.27259064 107.06886292 C70.2776712 109.49851455 70.26992422 111.92779768 70.25878906 114.35742188 C70.26283752 115.07546494 70.26688599 115.793508 70.27105713 116.53330994 C70.24018013 120.17108879 70.09757536 122.95787484 68 126 C65.92236328 127.48535156 65.92236328 127.48535156 63.3203125 128.890625 C62.34247803 129.42727783 61.36464355 129.96393066 60.35717773 130.5168457 C59.29055908 131.08878662 58.22394043 131.66072754 57.125 132.25 C54.84689151 133.4973022 52.56957755 134.74605639 50.29296875 135.99609375 C49.70034744 136.31978439 49.10772614 136.64347504 48.49714661 136.97697449 C42.36321249 140.33125193 36.29658885 143.79986176 30.234375 147.28161621 C28.44550963 148.3079048 26.65474548 149.33079468 24.86328125 150.35253906 C19.85415706 153.21106799 14.85190226 156.07742835 9.88671875 159.01171875 C8.78275757 159.65596802 8.78275757 159.65596802 7.65649414 160.31323242 C6.36163685 161.0696681 5.07235751 161.83579302 3.79077148 162.61450195 C-0.0346523 164.83213092 -2.61805157 165.36369495 -7 165 C-9.77880859 163.84521484 -9.77880859 163.84521484 -12.6484375 162.2109375 C-14.26214233 161.30347778 -14.26214233 161.30347778 -15.90844727 160.37768555 C-17.06415505 159.71045304 -18.21966788 159.04288276 -19.375 158.375 C-20.57878511 157.69147596 -21.78313961 157.00895382 -22.98803711 156.32739258 C-31.87940503 151.28201805 -40.71460361 146.13447787 -49.52148438 140.94335938 C-54.11951211 138.23663098 -58.73015861 135.5773185 -63.42578125 133.04296875 C-64.26488037 132.58897705 -65.10397949 132.13498535 -65.96850586 131.66723633 C-67.52253305 130.83275668 -69.08165325 130.00766182 -70.64672852 129.1940918 C-76.62368798 125.98540829 -76.62368798 125.98540829 -78 122 C-78.19006053 119.41570661 -78.27335377 116.94064647 -78.25878906 114.35742188 C-78.2622937 113.59273087 -78.26579834 112.82803986 -78.26940918 112.04017639 C-78.27820078 109.51627484 -78.27238648 106.99265433 -78.265625 104.46875 C-78.26697239 102.71284939 -78.26891354 100.95694914 -78.27142334 99.2010498 C-78.27437112 95.52250616 -78.27008809 91.84405969 -78.26074219 88.16552734 C-78.24934785 83.45101943 -78.25590917 78.73673924 -78.26788712 74.02223969 C-78.27511506 70.39685349 -78.27281349 66.77152125 -78.26763153 63.14613342 C-78.26629762 61.40780104 -78.2679337 59.66946375 -78.27259064 57.93113708 C-78.2776712 55.50148545 -78.26992422 53.07220232 -78.25878906 50.64257812 C-78.26283752 49.92453506 -78.26688599 49.206492 -78.27105713 48.46669006 C-78.24019161 44.83026385 -78.11132615 42.03261093 -76 39 C-73.59936523 37.29931641 -73.59936523 37.29931641 -70.55859375 35.6015625 C-69.4296167 34.96420166 -68.30063965 34.32684082 -67.13745117 33.67016602 C-65.90422976 32.988271 -64.67091031 32.30655328 -63.4375 31.625 C-62.17172157 30.91497911 -60.90650966 30.20394741 -59.6418457 29.49194336 C-56.39723569 27.66854842 -53.14580255 25.85773808 -49.8918457 24.05108643 C-45.87393538 21.8187844 -41.86304255 19.57390959 -37.8515625 17.33007812 C-35.75709803 16.16002236 -33.66076536 14.99330398 -31.5625 13.83007812 C-27.11004554 11.35296778 -22.69709742 8.85335082 -18.390625 6.12890625 C-17.71040283 5.70085693 -17.03018066 5.27280762 -16.3293457 4.83178711 C-14.60300527 3.73057395 -12.89238462 2.60481578 -11.18359375 1.4765625 C-7.25009641 -0.34780805 -4.20024697 -0.94354378 0 0 Z M-10.015625 16.47265625 C-11.00860596 17.03629883 -12.00158691 17.59994141 -13.0246582 18.18066406 C-14.62120239 19.11217285 -14.62120239 19.11217285 -16.25 20.0625 C-17.34723389 20.68995117 -18.44446777 21.31740234 -19.57495117 21.96386719 C-23.05849786 23.96156798 -26.53054254 25.97799328 -30 28 C-31.14098145 28.66306152 -32.28196289 29.32612305 -33.45751953 30.00927734 C-37.7701471 32.51685008 -42.08159504 35.02616287 -46.38183594 37.55493164 C-47.32446289 38.10914795 -48.26708984 38.66336426 -49.23828125 39.234375 C-50.06368408 39.72131836 -50.88908691 40.20826172 -51.73950195 40.70996094 C-53.79585438 41.88349655 -55.87093036 42.96554024 -58 44 C-58 44.66 -58 45.32 -58 46 C-57.02897339 46.54188965 -57.02897339 46.54188965 -56.03833008 47.09472656 C-42.78854199 54.49245676 -29.56368316 61.92925067 -16.3984375 69.4765625 C-15.27066895 70.11319824 -15.27066895 70.11319824 -14.12011719 70.76269531 C-12.74669326 71.5642283 -11.39553575 72.40573628 -10.07519531 73.29199219 C-7.27222802 75.12641091 -5.61667762 76.08024659 -2.23828125 75.640625 C2.56740958 73.20589623 7.1903037 70.51509057 11.8125 67.75 C20.81463428 62.4268649 29.86713461 57.21953252 39 52.125 C40.09803955 51.51237305 41.1960791 50.89974609 42.32739258 50.26855469 C44.88395493 48.84394139 47.44139461 47.42093978 50 46 C50 45.34 50 44.68 50 44 C48.96166016 43.42838135 48.96166016 43.42838135 47.90234375 42.84521484 C44.59988439 41.02483746 41.29939102 39.20093056 38 37.375 C37.39807831 37.04207947 36.79615662 36.70915894 36.17599487 36.3661499 C26.19351356 30.83881211 16.31438578 25.1581582 6.51757812 19.30615234 C5.58494141 18.7539502 4.65230469 18.20174805 3.69140625 17.6328125 C2.87873291 17.14699707 2.06605957 16.66118164 1.22875977 16.16064453 C-3.49977214 13.6982236 -5.33399219 13.77912 -10.015625 16.47265625 Z M-64 58 C-64.56045335 65.44612896 -64.98449378 72.89005501 -65.24349213 80.35256386 C-65.36799747 83.82146761 -65.53577761 87.27582372 -65.81054688 90.73632812 C-66.88885422 104.09105414 -66.88885422 104.09105414 -64 117 C-58.47377344 123.43204056 -50.68494202 126.60676066 -42.98254395 129.75109863 C-39.05735889 131.39471867 -35.47304662 133.44678131 -31.8203125 135.61328125 C-29.59004576 136.84907256 -27.3583491 138.08228796 -25.125 139.3125 C-23.95038772 139.96265018 -22.77590927 140.61304222 -21.6015625 141.26367188 C-16.33994806 144.20570301 -16.33994806 144.20570301 -11 147 C-11 127.2 -11 107.4 -11 87 C-16.94 83.720625 -16.94 83.720625 -23 80.375 C-33.65112926 74.48212066 -44.20027554 68.44848136 -54.65820312 62.21826172 C-55.59728516 61.66283691 -56.53636719 61.10741211 -57.50390625 60.53515625 C-58.32705322 60.044104 -59.1502002 59.55305176 -59.99829102 59.04711914 C-61.91885376 57.84549256 -61.91885376 57.84549256 -64 58 Z M49.50390625 60.53515625 C48.56482422 61.09058105 47.62574219 61.64600586 46.65820312 62.21826172 C45.63662109 62.82686035 44.61503906 63.43545898 43.5625 64.0625 C30.17628343 71.96300059 16.60928447 79.48654087 3 87 C3 106.8 3 126.6 3 147 C12.2587745 142.06198693 21.45252085 137.1136516 30.54516602 131.89013672 C32.32880449 130.86563488 34.11444381 129.84469034 35.90039062 128.82421875 C40.03590225 126.47550721 40.03590225 126.47550721 44.1260376 124.04977417 C46 123 46 123 48.60101318 121.90164185 C51.53683087 120.51730247 53.68464382 119.28445917 56 117 C57.39092535 112.49526664 57.16822131 108.18514761 56.9765625 103.5078125 C56.96241302 102.20673553 56.94826355 100.90565857 56.9336853 99.56515503 C56.89566268 96.12073472 56.7976081 92.68059335 56.68664551 89.237854 C56.58397954 85.71905418 56.53860024 82.19955617 56.48828125 78.6796875 C56.38132405 71.78471021 56.21087088 64.89256092 56 58 C53.24750947 58 51.86818311 59.12473563 49.50390625 60.53515625 Z " fill="#0BCEB2" transform="translate(260,191)"/>
<path d="M0 0 C1.07542557 -0.00571014 2.15085114 -0.01142029 3.25886536 -0.01730347 C4.4438562 -0.01842133 5.62884705 -0.01953918 6.8497467 -0.02069092 C8.71564201 -0.02813828 8.71564201 -0.02813828 10.61923218 -0.03573608 C14.03657726 -0.04785741 17.45386105 -0.05530595 20.87122035 -0.05974674 C23.00499598 -0.06267603 25.13876622 -0.06678053 27.27253914 -0.07125092 C33.94513612 -0.08492628 40.6177208 -0.09459321 47.29033083 -0.09845281 C54.99965698 -0.1029363 62.70880607 -0.12049738 70.41807836 -0.1494534 C76.37310939 -0.17104629 82.3280905 -0.18115577 88.28316027 -0.18249393 C91.84189789 -0.18354352 95.40046908 -0.18948399 98.95916557 -0.20731354 C102.92665746 -0.22680458 106.89392672 -0.22251481 110.86146545 -0.21600342 C112.04443207 -0.2252182 113.22739868 -0.23443298 114.44621277 -0.243927 C116.06358086 -0.23557327 116.06358086 -0.23557327 117.71362305 -0.22705078 C119.12145255 -0.22925062 119.12145255 -0.22925062 120.55772305 -0.2314949 C123.36180035 0.20994598 124.21046286 0.92297903 125.92030334 3.14044189 C126.79530334 5.01544189 126.79530334 5.01544189 126.92030334 7.14044189 C125.77243393 9.38400483 124.71072665 11.35001859 122.92030334 13.14044189 C121.32419353 13.23377895 119.72396906 13.25789562 118.12513733 13.25396729 C117.10415451 13.25389175 116.08317169 13.25381622 115.03125 13.2537384 C113.92084854 13.24857712 112.81044708 13.24341583 111.66639709 13.23809814 C110.53581375 13.2366832 109.40523041 13.23526825 108.24038696 13.23381042 C104.61283269 13.22819208 100.98533911 13.21563647 97.35780334 13.20294189 C94.90533027 13.19792926 92.45285624 13.19336594 90.00038147 13.18927002 C83.97366789 13.1782167 77.94698995 13.16146073 71.92030334 13.14044189 C71.92030334 14.79044189 71.92030334 16.44044189 71.92030334 18.14044189 C73.20662659 18.109021 73.20662659 18.109021 74.51893616 18.07696533 C77.70948807 18.00867663 80.8996668 17.95858676 84.0907135 17.92071533 C85.47007015 17.90063547 86.84934204 17.87336524 88.22840881 17.83868408 C90.21387313 17.79001372 92.19996589 17.76957772 94.18592834 17.74981689 C95.37992249 17.72886963 96.57391663 17.70792236 97.80409241 17.68634033 C100.92030334 18.14044189 100.92030334 18.14044189 103.31385803 19.97344971 C104.92030334 22.14044189 104.92030334 22.14044189 105.35780334 25.20294189 C104.92030334 28.14044189 104.92030334 28.14044189 103.88746643 29.79977417 C100.81664808 31.89260881 97.59706324 31.55727885 94.00819397 31.52862549 C92.80044563 31.53651093 92.80044563 31.53651093 91.56829834 31.54455566 C88.90418658 31.55777014 86.24067129 31.54901262 83.57655334 31.53887939 C81.72714625 31.54089972 79.87773993 31.54381081 78.02833557 31.5475769 C74.15126464 31.55200221 70.27440098 31.54556256 66.39735413 31.53155518 C61.42367811 31.51446316 56.45048772 31.52430323 51.47682953 31.54227257 C47.65759105 31.55310483 43.838468 31.54966664 40.01922607 31.54188919 C38.18516991 31.53988564 36.35110332 31.54235189 34.51705933 31.54932785 C31.95522739 31.5569332 29.39418569 31.54535141 26.83241272 31.52862549 C25.69149422 31.53773453 25.69149422 31.53773453 24.52752686 31.54702759 C19.42619067 31.48521595 19.42619067 31.48521595 16.95314026 29.79977417 C15.29342558 27.13331435 15.48332376 25.19929902 15.92030334 22.14044189 C18.06722446 19.31648342 19.21838211 18.25264312 22.76112366 17.68634033 C24.36358948 17.71776123 24.36358948 17.71776123 25.99842834 17.74981689 C27.15858459 17.76270752 28.31874084 17.77559814 29.51405334 17.78887939 C30.72061584 17.82239502 31.92717834 17.85591064 33.17030334 17.89044189 C35.00335022 17.91751221 35.00335022 17.91751221 36.87342834 17.94512939 C39.88984413 17.99226089 42.90467826 18.05804777 45.92030334 18.14044189 C45.92030334 16.49044189 45.92030334 14.84044189 45.92030334 13.14044189 C45.28803329 13.14710373 44.65576324 13.15376556 44.0043335 13.16062927 C37.43478979 13.22690336 30.86534075 13.2722095 24.29554749 13.30523682 C21.84238326 13.32034071 19.38924611 13.3408251 16.93617249 13.36676025 C13.4138878 13.40307247 9.89195953 13.42015226 6.36952209 13.43341064 C4.71940376 13.45663643 4.71940376 13.45663643 3.03594971 13.48033142 C1.50470207 13.48067131 1.50470207 13.48067131 -0.05747986 13.48101807 C-0.95682755 13.4876799 -1.85617523 13.49434174 -2.78277588 13.50120544 C-5.54509652 13.06734433 -6.38965812 12.32101505 -8.07969666 10.14044189 C-9.25815693 7.42091818 -9.13646977 6.32822988 -8.26719666 3.45294189 C-6.2793583 -0.41811174 -4.03958541 0.01280826 0 0 Z " fill="#0BCEB2" transform="translate(197.07969665527344,461.85955810546875)"/>
<path d="M0 0 C4.10934729 0.33923317 5.95148022 2.28955975 8.6875 5.25 C10.23070145 7.14870335 11.75029004 9.06676044 13.25 11 C14.11579905 12.03221067 14.9843281 13.06213716 15.85546875 14.08984375 C22.26927256 21.97534208 22.26927256 21.97534208 22.1796875 26.73828125 C21.25 30 21.25 30 18.25 32 C11.98641928 31.66445103 11.98641928 31.66445103 9.53125 29.44921875 C9.1084375 28.97097656 8.685625 28.49273437 8.25 28 C8.23541748 28.94319092 8.22083496 29.88638184 8.20581055 30.8581543 C8.14460394 34.37158661 8.07042492 37.88425446 7.98754883 41.3972168 C7.95438084 42.91501621 7.92632368 44.43293656 7.90356445 45.95092773 C7.86986722 48.13838019 7.81754796 50.32473264 7.76171875 52.51171875 C7.73553467 53.82615967 7.70935059 55.14060059 7.68237305 56.49487305 C7.23170142 60.14834148 6.47350748 62.09874804 4.25 65 C2.3125 65.6640625 2.3125 65.6640625 0.25 65.625 C-0.7709375 65.64433594 -0.7709375 65.64433594 -1.8125 65.6640625 C-3.75 65 -3.75 65 -5.33911133 62.92651367 C-7.0937652 59.28695043 -7.18136218 56.54561876 -7.26171875 52.51171875 C-7.27966995 51.80852005 -7.29762115 51.10532135 -7.31611633 50.3808136 C-7.3700048 48.14976883 -7.40404412 45.9189353 -7.4375 43.6875 C-7.47069224 42.16859053 -7.50518367 40.64970886 -7.54101562 39.13085938 C-7.62571695 35.42077584 -7.69263074 31.7106183 -7.75 28 C-8.87341797 28.99193359 -8.87341797 28.99193359 -10.01953125 30.00390625 C-12.75 32 -12.75 32 -16.4375 31.9375 C-19.75 31 -19.75 31 -21.75 28 C-21.71886185 21.53104904 -19.18399462 18.43529421 -15 13.9375 C-13.94241322 12.75937943 -12.88511873 11.58099642 -11.828125 10.40234375 C-11.30959961 9.83757324 -10.79107422 9.27280273 -10.25683594 8.69091797 C-8.79608397 7.0517138 -7.4471251 5.35695908 -6.09375 3.62890625 C-3.75 1 -3.75 1 0 0 Z " fill="#0ACEB2" transform="translate(255.75,114)"/>
<path d="M0 0 C2.48576657 3.47860543 2.34401307 7.27108355 2.4140625 11.390625 C2.43342865 12.09523865 2.4527948 12.79985229 2.4727478 13.52581787 C2.53232735 15.76709039 2.57884123 18.00841489 2.625 20.25 C2.66319979 21.77345938 2.70225269 23.29689762 2.7421875 24.8203125 C2.83801018 28.54668106 2.92212107 32.27320835 3 36 C3.8971875 35.02546875 3.8971875 35.02546875 4.8125 34.03125 C7 32 7 32 10 31.5 C13 32 13 32 15.4375 33.5625 C17 36 17 36 16.98828125 39.17578125 C15.69035382 44.19819608 13.22424987 46.88466973 9.75 50.625 C8.88955078 51.58792969 8.88955078 51.58792969 8.01171875 52.5703125 C6.36348934 54.40251284 4.68908162 56.20547936 3 58 C2.52755859 58.51191895 2.05511719 59.02383789 1.56835938 59.55126953 C-0.6839586 61.92093091 -1.71720487 62.94108435 -5 63.625 C-8.95295765 62.80146716 -10.49903586 60.95628479 -13 58 C-13.70511719 57.236875 -14.41023437 56.47375 -15.13671875 55.6875 C-17.46766761 53.16005793 -19.74378281 50.59424251 -22 48 C-22.56976563 47.35417969 -23.13953125 46.70835937 -23.7265625 46.04296875 C-26.25696773 42.91176898 -27 41.26166232 -27 37.1875 C-26 34 -26 34 -23 32 C-20.0625 31.625 -20.0625 31.625 -17 32 C-14.80859375 34.0234375 -14.80859375 34.0234375 -13 36 C-12.98541748 35.05680908 -12.97083496 34.11361816 -12.95581055 33.1418457 C-12.89460394 29.62841339 -12.82042492 26.11574554 -12.73754883 22.6027832 C-12.70438084 21.08498379 -12.67632368 19.56706344 -12.65356445 18.04907227 C-12.61986722 15.86161981 -12.56754796 13.67526736 -12.51171875 11.48828125 C-12.48553467 10.17384033 -12.45935059 8.85939941 -12.43237305 7.50512695 C-11.97925367 3.83181535 -11.28220145 1.88733318 -9 -1 C-5.17211056 -2.27596315 -3.63343017 -1.62344752 0 0 Z " fill="#2C4255" transform="translate(261,369)"/>
<path d="M0 0 C1.875 1.0625 1.875 1.0625 3 3 C3.5 6.4375 3.5 6.4375 3 10 C-0.27030906 13.02078217 -3.89425779 15.23304728 -7.73828125 17.453125 C-8.80498047 18.071875 -9.87167969 18.690625 -10.97070312 19.328125 C-12.07349609 19.96234375 -13.17628906 20.5965625 -14.3125 21.25 C-15.43462891 21.8996875 -16.55675781 22.549375 -17.71289062 23.21875 C-20.4731604 24.81618272 -23.23556475 26.40979032 -26 28 C-25.05125 28.433125 -24.1025 28.86625 -23.125 29.3125 C-20 31 -20 31 -18 34 C-18.1875 37.5625 -18.1875 37.5625 -19 41 C-25.32712531 45.21808354 -35.17643984 41.93553036 -42.4375 40.75 C-43.11127686 40.65307861 -43.78505371 40.55615723 -44.47924805 40.45629883 C-47.96495133 39.83753751 -50.14560844 38.89580657 -53.03515625 36.828125 C-55 34 -55 34 -55.05078125 30.859375 C-53.69306389 25.87266589 -52.03149732 21.07585144 -50.1875 16.25 C-49.84396484 15.30511719 -49.50042969 14.36023438 -49.14648438 13.38671875 C-48.80294922 12.48050781 -48.45941406 11.57429688 -48.10546875 10.640625 C-47.79762451 9.82110352 -47.48978027 9.00158203 -47.17260742 8.15722656 C-45.7888165 5.61148919 -44.4906777 4.45833209 -42 3 C-38.59421526 3.06950581 -36.72780818 3.41305792 -34.0625 5.5625 C-32.46810569 9.22022813 -33.42292918 12.07989819 -34 16 C-33.29391602 15.58637207 -32.58783203 15.17274414 -31.86035156 14.74658203 C-28.6576642 12.87141437 -25.4538462 10.99818697 -22.25 9.125 C-21.13882813 8.47402344 -20.02765625 7.82304687 -18.8828125 7.15234375 C-17.81289062 6.52714844 -16.74296875 5.90195312 -15.640625 5.2578125 C-14.16384277 4.39373779 -14.16384277 4.39373779 -12.65722656 3.51220703 C-8.12649492 0.93380279 -5.35304336 -0.5694727 0 0 Z " fill="#0ACEB2" transform="translate(172,317)"/>
<path d="M0 0 C0.67828857 0.10530029 1.35657715 0.21060059 2.05541992 0.3190918 C5.07746467 0.8723066 7.3669551 1.64268709 9.96484375 3.29296875 C11.74685081 6.19050278 11.65366955 8.06057792 11.04638672 11.36425781 C9.86025482 15.89001209 8.21126905 20.2131507 6.5 24.5625 C6.13970703 25.51125 5.77941406 26.46 5.40820312 27.4375 C2.70941311 34.41558689 2.70941311 34.41558689 0.4375 36.6875 C-6.63618421 37.36118421 -6.63618421 37.36118421 -9.625 35.1875 C-11.01185303 31.48922525 -10.12787523 28.57791419 -9.5625 24.6875 C-10.37404541 25.17742432 -11.18559082 25.66734863 -12.02172852 26.17211914 C-15.05276865 27.98961797 -18.09296035 29.78942032 -21.14086914 31.57836914 C-22.45513221 32.35444254 -23.76544193 33.1372533 -25.0715332 33.92700195 C-26.95552491 35.06457409 -28.8526547 36.17673334 -30.75390625 37.28515625 C-31.33024307 37.640298 -31.9065799 37.99543976 -32.50038147 38.36134338 C-36.85742338 40.85401966 -39.74825584 40.9479099 -44.5625 39.6875 C-46.5625 37.6875 -46.5625 37.6875 -47.1875 34.4375 C-46.50095807 30.31824841 -46.36642728 30.11325001 -43.2109375 27.8515625 C-38.20866367 24.30407126 -32.91133547 21.30047016 -27.5625 18.3125 C-26.59699219 17.76722656 -25.63148438 17.22195312 -24.63671875 16.66015625 C-22.28140824 15.3309216 -19.92336123 14.00684246 -17.5625 12.6875 C-18.17480469 12.39230469 -18.78710938 12.09710938 -19.41796875 11.79296875 C-22.15379731 10.38269647 -23.7368828 9.18927172 -25.5625 6.6875 C-25.5 3.0625 -25.5 3.0625 -24.5625 -0.3125 C-18.00594924 -4.68353384 -7.52241763 -1.27315732 0 0 Z " fill="#2C4255" transform="translate(383.5625,189.3125)"/>
<path d="M0 0 C1.73898901 0.80956439 3.44702944 1.68772955 5.125 2.6171875 C6.07890625 3.14183594 7.0328125 3.66648437 8.015625 4.20703125 C9.49289062 5.03267578 9.49289062 5.03267578 11 5.875 C12.47726562 6.68904297 12.47726562 6.68904297 13.984375 7.51953125 C18.36871 9.94276505 22.71453627 12.40510563 27 15 C26.94779297 14.07767578 26.94779297 14.07767578 26.89453125 13.13671875 C26.86746094 12.32847656 26.84039062 11.52023437 26.8125 10.6875 C26.76029297 9.48673828 26.76029297 9.48673828 26.70703125 8.26171875 C27 6 27 6 28.29296875 4.234375 C31.15948532 2.1615621 33.60140717 2.5751759 37 3 C40.72663331 7.05486525 42.25965953 12.24712532 44.1875 17.3125 C44.55552734 18.23740234 44.92355469 19.16230469 45.30273438 20.11523438 C47.27046131 25.25176832 48.77708115 29.48914009 48 35 C45.81730377 37.84184214 43.8932285 38.51600402 40.4296875 39.16796875 C39.5325 39.33876953 38.6353125 39.50957031 37.7109375 39.68554688 C36.77507812 39.85119141 35.83921875 40.01683594 34.875 40.1875 C33.96234375 40.36474609 33.0496875 40.54199219 32.109375 40.72460938 C20.02541942 42.95377212 20.02541942 42.95377212 15 42 C13.27685547 40.69995117 13.27685547 40.69995117 12 39 C11.5625 35.5 11.5625 35.5 12 32 C13.6875 30.0625 13.6875 30.0625 16 29 C18.75 28.8125 18.75 28.8125 21 29 C21 28.34 21 27.68 21 27 C20.12964111 26.73574219 19.25928223 26.47148437 18.36254883 26.19921875 C15.03961108 25.01412689 12.24397527 23.58495339 9.19921875 21.8125 C8.14025391 21.19632812 7.08128906 20.58015625 5.99023438 19.9453125 C4.35538086 18.98238281 4.35538086 18.98238281 2.6875 18 C1.57826172 17.35804688 0.46902344 16.71609375 -0.67382812 16.0546875 C-8.87251759 11.25496483 -8.87251759 11.25496483 -10 9 C-10.45913043 3.60521739 -10.45913043 3.60521739 -8.625 1.1875 C-5.35501892 -1.20210156 -3.87855242 -1.04482019 0 0 Z " fill="#0ACEB2" transform="translate(347,317)"/>
<path d="M0 0 C1 1 1 1 1.375 4.875 C1.35546875 7.05859375 1.35546875 7.05859375 1 9 C-1.60946239 11.18630633 -3.78376542 11.92792181 -7 13 C-6.40574219 13.33733154 -5.81148437 13.67466309 -5.19921875 14.0222168 C-2.46514066 15.57554946 0.26743522 17.13150684 3 18.6875 C4.40185547 19.48317383 4.40185547 19.48317383 5.83203125 20.29492188 C10.12370421 22.74087535 14.40363041 25.20373005 18.625 27.76953125 C19.25664062 28.15343018 19.88828125 28.5373291 20.5390625 28.93286133 C22 30 22 30 23 32 C23.44396083 37.21653972 23.44396083 37.21653972 21.9375 39.875 C18.92336743 41.62514149 16.43413392 41.23522077 13 41 C9.95800781 39.74658203 9.95800781 39.74658203 6.953125 38.0078125 C5.86128906 37.38519531 4.76945312 36.76257813 3.64453125 36.12109375 C2.52433594 35.46238281 1.40414062 34.80367187 0.25 34.125 C-0.88566406 33.47402344 -2.02132812 32.82304687 -3.19140625 32.15234375 C-7.19101471 29.85126415 -11.16004201 27.559972 -15 25 C-14.67 25.99 -14.34 26.98 -14 28 C-13.55477032 34.23321555 -13.55477032 34.23321555 -15.125 36.9375 C-17.93512264 38.52990283 -19.82764724 38.45319325 -23 38 C-26.19723476 35.33462608 -27.72642612 32.88996975 -29.140625 29.0078125 C-29.66269531 27.57888672 -29.66269531 27.57888672 -30.1953125 26.12109375 C-30.54335937 25.13238281 -30.89140625 24.14367187 -31.25 23.125 C-31.79527344 21.65353516 -31.79527344 21.65353516 -32.3515625 20.15234375 C-35.77930044 10.6036452 -35.77930044 10.6036452 -35 6 C-32.80892957 3.21689899 -30.97701412 2.50452035 -27.54296875 1.8671875 C-26.67736328 1.70089844 -25.81175781 1.53460938 -24.91992188 1.36328125 C-23.56737305 1.12158203 -23.56737305 1.12158203 -22.1875 0.875 C-21.29740234 0.70613281 -20.40730469 0.53726563 -19.49023438 0.36328125 C-17.76459342 0.03836442 -16.03747619 -0.27882939 -14.30883789 -0.58740234 C-12.39249696 -0.92985938 -10.48070002 -1.29763052 -8.5703125 -1.671875 C-5.25372296 -2.09526941 -3.05284112 -1.27793349 0 0 Z " fill="#2D4356" transform="translate(152,189)"/>
<path d="M0 0 C0.67671753 -0.00287018 1.35343506 -0.00574036 2.05065918 -0.00869751 C3.47958209 -0.01073647 4.90853302 -0.00521819 6.33740234 0.00732422 C8.52374725 0.02338239 10.70824379 0.00747216 12.89453125 -0.01171875 C14.28385824 -0.00973629 15.67318409 -0.00589254 17.0625 0 C18.32642578 0.00338379 19.59035156 0.00676758 20.89257812 0.01025391 C24.03125 0.3984375 24.03125 0.3984375 25.93945312 1.70458984 C27.81149186 4.60892901 27.44773119 7.06658795 27.03125 10.3984375 C24.69717353 12.87039942 23.26504799 13.36972071 19.87084961 13.78662109 C18.65405518 13.79000488 17.43726074 13.79338867 16.18359375 13.796875 C15.20393394 13.80118027 15.20393394 13.80118027 14.20448303 13.80557251 C12.82861459 13.8076078 11.45271687 13.80211528 10.0769043 13.78955078 C7.97183656 13.77346109 5.86868089 13.78942827 3.76367188 13.80859375 C2.42447494 13.80661173 1.08527919 13.80276889 -0.25390625 13.796875 C-1.46957275 13.79349121 -2.68523926 13.79010742 -3.93774414 13.78662109 C-6.96875 13.3984375 -6.96875 13.3984375 -8.86499023 12.09228516 C-10.73158995 9.22777092 -10.32245863 6.69971801 -9.96875 3.3984375 C-7.48511693 -0.46858365 -4.29281131 0.01149274 0 0 Z " fill="#0ACDB2" transform="translate(338.96875,461.6015625)"/>
<path d="M0 0 C0.67671753 -0.00287018 1.35343506 -0.00574036 2.05065918 -0.00869751 C3.47958209 -0.01073647 4.90853302 -0.00521819 6.33740234 0.00732422 C8.52374725 0.02338239 10.70824379 0.00747216 12.89453125 -0.01171875 C14.28385824 -0.00973629 15.67318409 -0.00589254 17.0625 0 C18.32642578 0.00338379 19.59035156 0.00676758 20.89257812 0.01025391 C24.03125 0.3984375 24.03125 0.3984375 25.94335938 1.70458984 C27.78641739 4.57423448 27.38426048 7.10367298 27.03125 10.3984375 C25.92749023 12.09228516 25.92749023 12.09228516 24.03125 13.3984375 C21.00024414 13.78662109 21.00024414 13.78662109 17.31640625 13.796875 C16.33818153 13.80118027 16.33818153 13.80118027 15.3401947 13.80557251 C13.96254609 13.80761144 12.58486842 13.80209336 11.20727539 13.78955078 C9.1043173 13.77351806 7.00328835 13.7893892 4.90039062 13.80859375 C3.55989161 13.80661078 2.21939379 13.80276598 0.87890625 13.796875 C-0.33788818 13.79349121 -1.55468262 13.79010742 -2.80834961 13.78662109 C-6.20254799 13.36972071 -7.63467353 12.87039942 -9.96875 10.3984375 C-10.70162447 4.53544176 -10.70162447 4.53544176 -8.87695312 1.70458984 C-5.97229184 -0.28363148 -3.48613118 0.00933309 0 0 Z " fill="#0ACDB1" transform="translate(155.96875,461.6015625)"/>
<path d="M0 0 C1.08667969 -0.01740234 1.08667969 -0.01740234 2.1953125 -0.03515625 C7.43495511 -0.00615454 7.43495511 -0.00615454 9.98046875 1.7109375 C11.57087064 4.30676587 11.30923001 6.40639191 11 9.375 C9 12.375 9 12.375 6 13.375 C4.02345815 13.49453769 2.04261544 13.55026196 0.0625 13.5625 C-1.49791016 13.58376953 -1.49791016 13.58376953 -3.08984375 13.60546875 C-5.9790201 13.3766615 -7.60136274 12.96110585 -10 11.375 C-11.39935013 8.57629973 -11.25265405 6.47001208 -11 3.375 C-8.49442755 -0.7399209 -4.30591861 -0.06895599 0 0 Z " fill="#2D4255" transform="translate(483,437.625)"/>
<path d="M0 0 C1.08667969 -0.01740234 1.08667969 -0.01740234 2.1953125 -0.03515625 C7.4360788 -0.00614832 7.4360788 -0.00614832 9.9765625 1.7109375 C11.59228866 4.33803424 11.37534269 6.37225849 11 9.375 C9.45493534 11.41167615 8.27853844 12.23573078 6 13.375 C4.04450744 13.49757461 2.08429382 13.55052388 0.125 13.5625 C-0.92429687 13.57667969 -1.97359375 13.59085937 -3.0546875 13.60546875 C-5.96314913 13.37788356 -7.58822549 12.97350171 -10 11.375 C-11.39935013 8.57629973 -11.25265405 6.47001208 -11 3.375 C-8.49442755 -0.7399209 -4.30591861 -0.06895599 0 0 Z " fill="#2D4355" transform="translate(29,437.625)"/>
<path d="M0 0 C3.03339644 2.10004369 3.82330849 3.40682136 4.875 6.9375 C5.03907955 10.95744886 4.20964556 13.45909765 1.73046875 16.6171875 C-1.164986 18.93093689 -4.04608653 18.46868648 -7.6171875 18.34375 C-10 18 -10 18 -12.5625 16.4375 C-14.48362165 13.17994589 -14.93370805 10.77864098 -15 7 C-11.85671673 -0.27918231 -7.39969202 -2.21838816 0 0 Z M-7 5 C-7.66 5.66 -8.32 6.32 -9 7 C-8.67958603 9.60280568 -8.67958603 9.60280568 -8 12 C-5.60280568 12.67958603 -5.60280568 12.67958603 -3 13 C-2.34 12.34 -1.68 11.68 -1 11 C-1.32041397 8.39719432 -1.32041397 8.39719432 -2 6 C-4.39719432 5.32041397 -4.39719432 5.32041397 -7 5 Z " fill="#2C4255" transform="translate(261,23)"/>
<path d="M0 0 C1.32 1.32 2.64 2.64 4 4 C4.99 2.68 5.98 1.36 7 0 C7.99 0.99 8.98 1.98 10 3 C9.01 4.485 9.01 4.485 8 6 C9.65 6.33 11.3 6.66 13 7 C13 8.32 13 9.64 13 11 C11.35 11.33 9.7 11.66 8 12 C8.66 13.32 9.32 14.64 10 16 C8.02 16.99 8.02 16.99 6 18 C5.34 16.68 4.68 15.36 4 14 C2.68 15.32 1.36 16.64 0 18 C-0.99 17.01 -1.98 16.02 -3 15 C-2.34 14.01 -1.68 13.02 -1 12 C-2.32 11.67 -3.64 11.34 -5 11 C-5 9.68 -5 8.36 -5 7 C-3.68 6.67 -2.36 6.34 -1 6 C-1.66 4.68 -2.32 3.36 -3 2 C-2.01 1.34 -1.02 0.68 0 0 Z " fill="#0ACFB2" transform="translate(408,77)"/>
<path d="M0 0 C2 0.3125 2 0.3125 4 1 C4.33 1.66 4.66 2.32 5 3 C5.66 2.01 6.32 1.02 7 0 C8.65 0.33 10.3 0.66 12 1 C10.515 3.475 10.515 3.475 9 6 C10.65 6 12.3 6 14 6 C14 7.32 14 8.64 14 10 C12.35 10.33 10.7 10.66 9 11 C9.99 12.32 10.98 13.64 12 15 C11.34 15.66 10.68 16.32 10 17 C9.01 17 8.02 17 7 17 C6.34 15.68 5.68 14.36 5 13 C4.34 14.32 3.68 15.64 3 17 C1.68 16.67 0.36 16.34 -1 16 C-0.34 14.35 0.32 12.7 1 11 C-0.65 10.67 -2.3 10.34 -4 10 C-4 8.68 -4 7.36 -4 6 C-2.35 6 -0.7 6 1 6 C0.34 4.35 -0.32 2.7 -1 1 C-0.67 0.67 -0.34 0.34 0 0 Z " fill="#0ACFB1" transform="translate(175,61)"/>
<path d="M0 0 C0.70125 0.00515625 1.4025 0.0103125 2.125 0.015625 C2.82625 0.01046875 3.5275 0.0053125 4.25 0 C6.125 0.265625 6.125 0.265625 8.125 2.265625 C8.80473856 9.4028799 8.80473856 9.4028799 6.5 12.328125 C3.25221302 13.61014618 1.43203161 13.32106062 -1.875 12.265625 C-3.8125 10.578125 -3.8125 10.578125 -4.875 8.265625 C-4.41660363 0.62568551 -4.41660363 0.62568551 0 0 Z " fill="#2C4356" transform="translate(503.875,437.734375)"/>
<path d="M0 0 C2.91289646 0.08473881 3.77703881 0.15009119 6.125 2 C7.40702118 5.24778698 7.11793562 7.06796839 6.0625 10.375 C4.375 12.3125 4.375 12.3125 2.0625 13.375 C-1.61043796 13.15462372 -3.30716546 13.00533454 -5.9375 10.375 C-6.203125 8.5 -6.203125 8.5 -6.1875 6.375 C-6.19265625 5.67375 -6.1978125 4.9725 -6.203125 4.25 C-5.64141538 0.2849909 -3.70326965 0.35269235 0 0 Z " fill="#2C4356" transform="translate(5.9375,437.625)"/>
<path d="M0 0 C1.32 0.66 2.64 1.32 4 2 C3.34 3.32 2.68 4.64 2 6 C3.32 6 4.64 6 6 6 C6 7.32 6 8.64 6 10 C4.68 10 3.36 10 2 10 C2.66 11.32 3.32 12.64 4 14 C2.68 14.33 1.36 14.66 0 15 C-0.33 14.01 -0.66 13.02 -1 12 C-1.66 12 -2.32 12 -3 12 C-3.66 13.32 -4.32 14.64 -5 16 C-5.66 15.67 -6.32 15.34 -7 15 C-6.7525 14.0409375 -6.7525 14.0409375 -6.5 13.0625 C-5.96073333 11.19173179 -5.96073333 11.19173179 -6 10 C-6.99 10 -7.98 10 -9 10 C-9 8.68 -9 7.36 -9 6 C-8.01 5.67 -7.02 5.34 -6 5 C-6.33 3.68 -6.66 2.36 -7 1 C-5.68 1 -4.36 1 -3 1 C-3 1.99 -3 2.98 -3 4 C-2.34 4 -1.68 4 -1 4 C-0.67 2.68 -0.34 1.36 0 0 Z " fill="#0ACFB4" transform="translate(495,64)"/>
<path d="M0 0 C1.5625 2.8125 1.5625 2.8125 2 6 C0.9375 8.8125 0.9375 8.8125 -1 11 C-3.375 12 -3.375 12 -6 12 C-9.2275467 10.67963999 -10.63406062 9.86910604 -12 6.625 C-12 3.23174498 -11.06582795 1.65606451 -9 -1 C-5.13560305 -2.28813232 -3.624827 -1.77385151 0 0 Z M-7 3 C-7 4.32 -7 5.64 -7 7 C-5.68 7 -4.36 7 -3 7 C-3 5.68 -3 4.36 -3 3 C-4.32 3 -5.64 3 -7 3 Z " fill="#2C4356" transform="translate(37,142)"/>
<path d="M0 0 C2.4375 1.625 2.4375 1.625 4 4 C3.93498241 7.18586196 3.51914046 9.18030454 1.8125 11.875 C-0.90024939 13.55877549 -2.87875511 13.39015561 -6 13 C-7.875 11.9375 -7.875 11.9375 -9 10 C-9.63316583 4.09045226 -9.63316583 4.09045226 -7.875 1.0625 C-5.06487736 -0.52990283 -3.17235276 -0.45319325 0 0 Z M-4 4 C-4.33 5.32 -4.66 6.64 -5 8 C-3.68 8 -2.36 8 -1 8 C-0.67 7.34 -0.34 6.68 0 6 C-0.33 5.34 -0.66 4.68 -1 4 C-1.99 4 -2.98 4 -4 4 Z " fill="#2B4254" transform="translate(344,62)"/>
<path d="M0 0 C3.5625 0.3125 3.5625 0.3125 5.5 1.375 C7.19585287 4.46743758 6.99310657 6.86764741 6.5625 10.3125 C4.48558202 12.69710953 3.15693084 13.2084746 0.0625 13.75 C-2.4375 13.3125 -2.4375 13.3125 -4.8125 11.75 C-6.4375 9.3125 -6.4375 9.3125 -6.3125 5.6875 C-5.14951423 1.20169775 -4.66151968 0.42377452 0 0 Z M-1.4375 4.3125 C-1.4375 5.6325 -1.4375 6.9525 -1.4375 8.3125 C-0.1175 8.3125 1.2025 8.3125 2.5625 8.3125 C2.2325 6.9925 1.9025 5.6725 1.5625 4.3125 C0.5725 4.3125 -0.4175 4.3125 -1.4375 4.3125 Z " fill="#2C4153" transform="translate(111.4375,18.6875)"/>
<path d="M0 0 C2 2 2 2 2.3125 5.4375 C2 9 2 9 0.9375 10.9375 C-2.15493758 12.63335287 -4.55514741 12.43060657 -8 12 C-10 10.375 -10 10.375 -11 8 C-10.92897215 4.5196355 -10.61415498 2.70514091 -8.3125 0.0625 C-5.16096578 -1.38550221 -3.29050737 -0.929926 0 0 Z M-5 3 C-5.66 4.32 -6.32 5.64 -7 7 C-4.525 7.495 -4.525 7.495 -2 8 C-2.33 6.35 -2.66 4.7 -3 3 C-3.66 3 -4.32 3 -5 3 Z " fill="#2D4355" transform="translate(422,22)"/>
<path d="M0 0 C0.33 0.66 0.66 1.32 1 2 C1.66 2 2.32 2 3 2 C3.33 1.34 3.66 0.68 4 0 C4.66 0.33 5.32 0.66 6 1 C6.86159454 4.23097953 7.30597523 6.22486274 6.0625 9.375 C5.711875 9.91125 5.36125 10.4475 5 11 C4.34 11 3.68 11 3 11 C3 10.34 3 9.68 3 9 C2.34 9 1.68 9 1 9 C1 9.66 1 10.32 1 11 C0.01 10.67 -0.98 10.34 -2 10 C-1.67 9.01 -1.34 8.02 -1 7 C-1.66 7 -2.32 7 -3 7 C-2.625 4.0625 -2.625 4.0625 -2 1 C-1.34 0.67 -0.68 0.34 0 0 Z " fill="#09CEB1" transform="translate(23,54)"/>
</svg>
